<mxfile host="app.diagrams.net" modified="2023-01-25T05:59:44.755Z" agent="5.0 (Macintosh; Intel Mac OS X 10_15_7) AppleWebKit/537.36 (KHTML, like Gecko) Chrome/109.0.0.0 Safari/537.36" etag="j1SawvpM5sQYvcsGofoj" version="20.8.10" type="github">
  <diagram name="Page-1" id="yLwm_b1PJ0iNczxj8EU7">
    <mxGraphModel dx="707" dy="456" grid="1" gridSize="10" guides="1" tooltips="1" connect="1" arrows="1" fold="1" page="1" pageScale="1" pageWidth="850" pageHeight="1100" math="0" shadow="0">
      <root>
        <mxCell id="0" />
        <mxCell id="1" parent="0" />
        <mxCell id="8xytNUwuygh6yUAP5E2m-7" value="" style="edgeStyle=orthogonalEdgeStyle;rounded=0;orthogonalLoop=1;jettySize=auto;html=1;" edge="1" parent="1" target="8xytNUwuygh6yUAP5E2m-6">
          <mxGeometry relative="1" as="geometry">
            <mxPoint x="340" y="490" as="sourcePoint" />
          </mxGeometry>
        </mxCell>
        <mxCell id="8xytNUwuygh6yUAP5E2m-12" value="" style="edgeStyle=orthogonalEdgeStyle;rounded=0;orthogonalLoop=1;jettySize=auto;html=1;" edge="1" parent="1" target="8xytNUwuygh6yUAP5E2m-11">
          <mxGeometry relative="1" as="geometry">
            <mxPoint x="340" y="490" as="sourcePoint" />
          </mxGeometry>
        </mxCell>
        <mxCell id="8xytNUwuygh6yUAP5E2m-17" value="" style="edgeStyle=orthogonalEdgeStyle;rounded=0;orthogonalLoop=1;jettySize=auto;html=1;" edge="1" parent="1" source="8xytNUwuygh6yUAP5E2m-1" target="8xytNUwuygh6yUAP5E2m-16">
          <mxGeometry relative="1" as="geometry" />
        </mxCell>
        <mxCell id="8xytNUwuygh6yUAP5E2m-25" value="" style="edgeStyle=orthogonalEdgeStyle;rounded=0;orthogonalLoop=1;jettySize=auto;html=1;" edge="1" parent="1" source="8xytNUwuygh6yUAP5E2m-1" target="8xytNUwuygh6yUAP5E2m-24">
          <mxGeometry relative="1" as="geometry" />
        </mxCell>
        <mxCell id="8xytNUwuygh6yUAP5E2m-27" value="" style="edgeStyle=orthogonalEdgeStyle;rounded=0;orthogonalLoop=1;jettySize=auto;html=1;" edge="1" parent="1" source="8xytNUwuygh6yUAP5E2m-1" target="8xytNUwuygh6yUAP5E2m-26">
          <mxGeometry relative="1" as="geometry" />
        </mxCell>
        <mxCell id="8xytNUwuygh6yUAP5E2m-28" value="" style="edgeStyle=orthogonalEdgeStyle;rounded=0;orthogonalLoop=1;jettySize=auto;html=1;" edge="1" parent="1" source="8xytNUwuygh6yUAP5E2m-1" target="8xytNUwuygh6yUAP5E2m-26">
          <mxGeometry relative="1" as="geometry" />
        </mxCell>
        <mxCell id="8xytNUwuygh6yUAP5E2m-30" value="" style="edgeStyle=orthogonalEdgeStyle;rounded=0;orthogonalLoop=1;jettySize=auto;html=1;exitX=1;exitY=0;exitDx=0;exitDy=0;" edge="1" parent="1" source="8xytNUwuygh6yUAP5E2m-1" target="8xytNUwuygh6yUAP5E2m-29">
          <mxGeometry relative="1" as="geometry" />
        </mxCell>
        <mxCell id="8xytNUwuygh6yUAP5E2m-34" value="" style="edgeStyle=orthogonalEdgeStyle;rounded=0;orthogonalLoop=1;jettySize=auto;html=1;" edge="1" parent="1" source="8xytNUwuygh6yUAP5E2m-1" target="8xytNUwuygh6yUAP5E2m-33">
          <mxGeometry relative="1" as="geometry" />
        </mxCell>
        <mxCell id="8xytNUwuygh6yUAP5E2m-35" value="" style="edgeStyle=orthogonalEdgeStyle;rounded=0;orthogonalLoop=1;jettySize=auto;html=1;" edge="1" parent="1" source="8xytNUwuygh6yUAP5E2m-1" target="8xytNUwuygh6yUAP5E2m-33">
          <mxGeometry relative="1" as="geometry" />
        </mxCell>
        <mxCell id="8xytNUwuygh6yUAP5E2m-37" value="" style="edgeStyle=orthogonalEdgeStyle;rounded=0;orthogonalLoop=1;jettySize=auto;html=1;" edge="1" parent="1" source="8xytNUwuygh6yUAP5E2m-1" target="8xytNUwuygh6yUAP5E2m-36">
          <mxGeometry relative="1" as="geometry" />
        </mxCell>
        <mxCell id="8xytNUwuygh6yUAP5E2m-1" value="SAP Logon" style="rounded=1;whiteSpace=wrap;html=1;fillColor=#d5e8d4;strokeColor=#82b366;fontStyle=1" vertex="1" parent="1">
          <mxGeometry x="280" y="280" width="120" height="60" as="geometry" />
        </mxCell>
        <mxCell id="8xytNUwuygh6yUAP5E2m-32" style="edgeStyle=orthogonalEdgeStyle;rounded=0;orthogonalLoop=1;jettySize=auto;html=1;" edge="1" parent="1" source="8xytNUwuygh6yUAP5E2m-2">
          <mxGeometry relative="1" as="geometry">
            <mxPoint x="340" y="620" as="targetPoint" />
          </mxGeometry>
        </mxCell>
        <mxCell id="8xytNUwuygh6yUAP5E2m-2" value="SMICM" style="rounded=1;whiteSpace=wrap;html=1;fillColor=#dae8fc;strokeColor=#6c8ebf;fontStyle=1" vertex="1" parent="1">
          <mxGeometry x="280" y="520" width="120" height="60" as="geometry" />
        </mxCell>
        <mxCell id="8xytNUwuygh6yUAP5E2m-4" value="GoTo → HTTP Plug-In → Server Cache → Display" style="rounded=1;whiteSpace=wrap;html=1;fillStyle=auto;glass=0;fillColor=none;strokeColor=none;" vertex="1" parent="1">
          <mxGeometry x="345" y="620" width="150" height="60" as="geometry" />
        </mxCell>
        <mxCell id="8xytNUwuygh6yUAP5E2m-6" value="&lt;b&gt;Frontend&lt;/b&gt;&lt;br&gt;/n/IWFND/CACHE_CLEANUP" style="rounded=1;whiteSpace=wrap;html=1;fillColor=#dae8fc;strokeColor=#6c8ebf;" vertex="1" parent="1">
          <mxGeometry x="70" y="520" width="170" height="60" as="geometry" />
        </mxCell>
        <mxCell id="8xytNUwuygh6yUAP5E2m-11" value="&lt;b&gt;Backend&lt;/b&gt;&lt;br&gt;/n//IWBEP/CACHE_CLEANUP" style="rounded=1;whiteSpace=wrap;html=1;fillColor=#dae8fc;strokeColor=#6c8ebf;" vertex="1" parent="1">
          <mxGeometry x="440" y="520" width="200" height="60" as="geometry" />
        </mxCell>
        <mxCell id="8xytNUwuygh6yUAP5E2m-22" value="" style="endArrow=none;html=1;rounded=0;startArrow=none;" edge="1" parent="1" source="8xytNUwuygh6yUAP5E2m-16">
          <mxGeometry width="50" height="50" relative="1" as="geometry">
            <mxPoint x="339.5" y="490" as="sourcePoint" />
            <mxPoint x="339.5" y="430" as="targetPoint" />
          </mxGeometry>
        </mxCell>
        <mxCell id="8xytNUwuygh6yUAP5E2m-23" value="" style="endArrow=none;html=1;rounded=0;" edge="1" parent="1" target="8xytNUwuygh6yUAP5E2m-16">
          <mxGeometry width="50" height="50" relative="1" as="geometry">
            <mxPoint x="339.5" y="490" as="sourcePoint" />
            <mxPoint x="339.5" y="430" as="targetPoint" />
          </mxGeometry>
        </mxCell>
        <mxCell id="8xytNUwuygh6yUAP5E2m-31" style="edgeStyle=orthogonalEdgeStyle;rounded=0;orthogonalLoop=1;jettySize=auto;html=1;entryX=0.5;entryY=0;entryDx=0;entryDy=0;" edge="1" parent="1" source="8xytNUwuygh6yUAP5E2m-16" target="8xytNUwuygh6yUAP5E2m-2">
          <mxGeometry relative="1" as="geometry" />
        </mxCell>
        <mxCell id="8xytNUwuygh6yUAP5E2m-16" value="Cache" style="rounded=1;whiteSpace=wrap;html=1;fillColor=#fff2cc;strokeColor=#d6b656;fontStyle=1" vertex="1" parent="1">
          <mxGeometry x="280" y="390" width="120" height="60" as="geometry" />
        </mxCell>
        <mxCell id="8xytNUwuygh6yUAP5E2m-24" value="SU01" style="rounded=1;whiteSpace=wrap;html=1;fillColor=#dae8fc;strokeColor=#6c8ebf;fontStyle=1" vertex="1" parent="1">
          <mxGeometry x="80" y="280" width="120" height="60" as="geometry" />
        </mxCell>
        <mxCell id="8xytNUwuygh6yUAP5E2m-26" value="SE01" style="rounded=1;whiteSpace=wrap;html=1;fillColor=#dae8fc;strokeColor=#6c8ebf;fontStyle=1" vertex="1" parent="1">
          <mxGeometry x="280" y="180" width="120" height="60" as="geometry" />
        </mxCell>
        <mxCell id="8xytNUwuygh6yUAP5E2m-29" value="SE80" style="rounded=1;whiteSpace=wrap;html=1;fillColor=#dae8fc;strokeColor=#6c8ebf;fontStyle=1" vertex="1" parent="1">
          <mxGeometry x="460" y="180" width="120" height="60" as="geometry" />
        </mxCell>
        <mxCell id="8xytNUwuygh6yUAP5E2m-33" value="&lt;b&gt;GateWay Client&lt;br&gt;&lt;/b&gt;/n/IWFND/GW_CLIENT" style="rounded=1;whiteSpace=wrap;html=1;fillColor=#dae8fc;strokeColor=#6c8ebf;" vertex="1" parent="1">
          <mxGeometry x="610" y="250" width="160" height="60" as="geometry" />
        </mxCell>
        <mxCell id="8xytNUwuygh6yUAP5E2m-36" value="&lt;b&gt;Error Log&lt;br&gt;&lt;/b&gt;/n/&lt;span style=&quot;background-color: initial;&quot;&gt;UI2/GW_ERR_LOG&lt;/span&gt;&lt;br&gt;&lt;div&gt;&lt;br&gt;&lt;/div&gt;" style="rounded=1;whiteSpace=wrap;html=1;fillColor=#dae8fc;strokeColor=#6c8ebf;" vertex="1" parent="1">
          <mxGeometry x="610" y="330" width="160" height="60" as="geometry" />
        </mxCell>
      </root>
    </mxGraphModel>
  </diagram>
</mxfile>
